<svg width="24" height="24" viewBox="0 0 24 24" fill="none" xmlns="http://www.w3.org/2000/svg">
<path d="M17.0562 5.94383L5.67175 17.3282C5.30075 17.6992 5.30075 18.3008 5.67175 18.6718L5.74246 18.7425C6.11346 19.1135 6.71497 19.1135 7.08597 18.7425L18.4704 7.35804C18.8414 6.98705 18.8414 6.38554 18.4704 6.01454L18.3997 5.94383C18.0287 5.57283 17.4272 5.57283 17.0562 5.94383Z" fill="#111111"/>
<path d="M18.0562 17.0562L6.67175 5.67175C6.30075 5.30075 5.69925 5.30075 5.32825 5.67175L5.25754 5.74246C4.88654 6.11346 4.88654 6.71497 5.25754 7.08597L16.642 18.4704C17.013 18.8414 17.6145 18.8414 17.9855 18.4704L18.0562 18.3997C18.4272 18.0287 18.4272 17.4272 18.0562 17.0562Z" fill="#111111"/>
</svg>
