<svg width="131" height="130" viewBox="0 0 131 130" fill="none" xmlns="http://www.w3.org/2000/svg">
<!-- <g filter="url(#filter0_d_333_718)">
<g filter="url(#filter1_b_333_718)">
<ellipse cx="65.4346" cy="65" rx="50.2618" ry="50" fill="#111111" fill-opacity="0.5"/>
</g> -->
<path d="M115.696 65C115.696 92.6142 93.1934 115 65.4346 115C37.6758 115 15.1729 92.6142 15.1729 65C15.1729 37.3858 37.6758 15 65.4346 15C93.1934 15 115.696 37.3858 115.696 65ZM22.7121 65C22.7121 88.4721 41.8396 107.5 65.4346 107.5C89.0296 107.5 108.157 88.4721 108.157 65C108.157 41.5279 89.0296 22.5 65.4346 22.5C41.8396 22.5 22.7121 41.5279 22.7121 65Z" fill="#111111"/>
<path d="M86.5404 63.2657C87.879 64.0345 87.879 65.9655 86.5404 66.7343L56.3677 84.0638C55.0343 84.8296 53.3716 83.8671 53.3716 82.3295L53.3716 47.6705C53.3716 46.1329 55.0343 45.1704 56.3677 45.9362L86.5404 63.2657Z" fill="white"/>
<!-- </g> -->
<!-- <defs>
<filter id="filter0_d_333_718" x="0.172852" y="0" width="130.523" height="130" filterUnits="userSpaceOnUse" color-interpolation-filters="sRGB">
<feFlood flood-opacity="0" result="BackgroundImageFix"/>
<feColorMatrix in="SourceAlpha" type="matrix" values="0 0 0 0 0 0 0 0 0 0 0 0 0 0 0 0 0 0 127 0" result="hardAlpha"/>
<feOffset/>
<feGaussianBlur stdDeviation="7.5"/>
<feComposite in2="hardAlpha" operator="out"/>
<feColorMatrix type="matrix" values="0 0 0 0 1 0 0 0 0 1 0 0 0 0 1 0 0 0 0.3 0"/>
<feBlend mode="normal" in2="BackgroundImageFix" result="effect1_dropShadow_333_718"/>
<feBlend mode="normal" in="SourceGraphic" in2="effect1_dropShadow_333_718" result="shape"/>
</filter>
<filter id="filter1_b_333_718" x="10.1729" y="10" width="110.523" height="110" filterUnits="userSpaceOnUse" color-interpolation-filters="sRGB">
<feFlood flood-opacity="0" result="BackgroundImageFix"/>
<feGaussianBlur in="BackgroundImageFix" stdDeviation="2.5"/>
<feComposite in2="SourceAlpha" operator="in" result="effect1_backgroundBlur_333_718"/>
<feBlend mode="normal" in="SourceGraphic" in2="effect1_backgroundBlur_333_718" result="shape"/>
</filter>
</defs> -->
</svg>
