<svg width="32" height="32" viewBox="0 0 32 32" fill="none" xmlns="http://www.w3.org/2000/svg">
<circle cx="16" cy="16" r="15.25" stroke="#111111" stroke-width="1.5"/>
<mask id="path-2-inside-1_951_834" fill="white">
<path fill-rule="evenodd" clip-rule="evenodd" d="M6 24.5365C6.99515 20.2282 11.0944 17 16.0002 17C20.9054 17 25.0044 20.2277 26 24.5353C23.3141 26.6949 19.8197 28.0001 15.9993 28.0001C12.1796 28.0001 8.68579 26.6953 6 24.5365Z"/>
</mask>
<path d="M6 24.5365L4.53848 24.1989L4.32665 25.116L5.06025 25.7056L6 24.5365ZM26 24.5353L26.9399 25.7044L27.6735 25.1146L27.4615 24.1976L26 24.5353ZM7.46152 24.8741C8.28824 21.295 11.7415 18.5 16.0002 18.5V15.5C10.4473 15.5 5.70207 19.1615 4.53848 24.1989L7.46152 24.8741ZM16.0002 18.5C20.2584 18.5 23.7115 21.2945 24.5386 24.8731L27.4615 24.1976C26.2974 19.1608 21.5525 15.5 16.0002 15.5V18.5ZM25.0601 23.3663C22.6387 25.3132 19.4754 26.5001 15.9993 26.5001V29.5001C20.164 29.5001 23.9895 28.0765 26.9399 25.7044L25.0601 23.3663ZM15.9993 26.5001C12.5238 26.5001 9.36106 25.3136 6.93975 23.3674L5.06025 25.7056C8.01051 28.077 11.8353 29.5001 15.9993 29.5001V26.5001Z" fill="#111111" mask="url(#path-2-inside-1_951_834)"/>
<circle cx="16" cy="12" r="5.25" stroke="#111111" stroke-width="1.5"/>
</svg>
