<svg width="24" height="24" viewBox="0 0 24 24" fill="none" xmlns="http://www.w3.org/2000/svg">
<g clip-path="url(#clip0_585_883)">
<path d="M23.5006 6.5104C23.3647 6.02593 23.1 5.58732 22.7346 5.24119C22.3589 4.88441 21.8984 4.6292 21.3966 4.49965C19.5186 4.00496 11.9946 4.00496 11.9946 4.00496C8.85795 3.96929 5.72205 4.12616 2.60462 4.47466C2.10281 4.61379 1.64318 4.8747 1.26662 5.23419C0.896617 5.58997 0.628617 6.0287 0.488617 6.5094C0.15231 8.32002 -0.0110908 10.1585 0.000617183 12C-0.0113828 13.8399 0.151617 15.6777 0.488617 17.4906C0.625617 17.9693 0.892617 18.406 1.26362 18.7588C1.63462 19.1116 2.09662 19.3664 2.60462 19.5013C4.50762 19.995 11.9946 19.995 11.9946 19.995C15.1353 20.0307 18.2752 19.8739 21.3966 19.5253C21.8984 19.3958 22.3589 19.1406 22.7346 18.7838C23.0999 18.4377 23.3643 17.999 23.4996 17.5146C23.8447 15.7046 24.0125 13.8654 24.0006 12.023C24.0266 10.1727 23.859 8.32484 23.5006 6.5094V6.5104ZM9.60262 15.4219V8.57912L15.8626 12.001L9.60262 15.4219Z" fill="#F4F4F4"/>
</g>
<defs>
<clipPath id="clip0_585_883">
<rect width="24" height="24" fill="white"/>
</clipPath>
</defs>
</svg>
